<svg width="900" height="240" viewBox="0 0 900 240" fill="none" xmlns="http://www.w3.org/2000/svg">
  <defs>
    <linearGradient id="badgeFill" x1="0" y1="0" x2="1" y2="1">
      <stop offset="0%" stop-color="#2ea44f"/>
      <stop offset="100%" stop-color="#1f7a38"/>
    </linearGradient>
    <linearGradient id="badgeEdge" x1="0" y1="0" x2="1" y2="0">
      <stop offset="0%" stop-color="#d8f5d0" stop-opacity="0.95"/>
      <stop offset="100%" stop-color="#ffffff" stop-opacity="0.4"/>
    </linearGradient>
    <filter id="softGlow" x="-20%" y="-40%" width="140%" height="180%">
      <feGaussianBlur stdDeviation="10" result="blur"/>
      <feColorMatrix in="blur" type="matrix"
        values="1 0 0 0 0
                0 1 0 0 0
                0 0 1 0 0
                0 0 0 0.28 0" result="glow"/>
      <feBlend in="SourceGraphic" in2="glow" mode="screen"/>
    </filter>
    <style>
      .confetti-a { fill: #ff8a00; }
      .confetti-b { fill: #ff4d6d; }
      .confetti-c { fill: #21c7a8; }
      .confetti-d { fill: #5a7fff; }
      .confetti-e { fill: #ffd93d; }
      .confetti-f { fill: #d26bff; }

      .piece-fast {
        animation: driftFast 3.2s ease-in-out infinite;
        transform-box: fill-box;
        transform-origin: center;
      }

      .piece-slow {
        animation: driftSlow 4.4s ease-in-out infinite;
        transform-box: fill-box;
        transform-origin: center;
      }

      .sparkle {
        animation: twinkle 2.2s ease-in-out infinite;
        transform-box: fill-box;
        transform-origin: center;
      }

      .badge-float {
        animation: badgeFloat 2.8s ease-in-out infinite;
        transform-origin: center;
      }

      .halo {
        animation: haloPulse 2.6s ease-in-out infinite;
        transform-origin: center;
      }

      @keyframes driftFast {
        0%, 100% { transform: translateY(0px) rotate(0deg); opacity: 0.95; }
        50% { transform: translateY(8px) rotate(18deg); opacity: 0.72; }
      }

      @keyframes driftSlow {
        0%, 100% { transform: translateY(0px) rotate(0deg); opacity: 0.88; }
        50% { transform: translateY(-10px) rotate(-14deg); opacity: 0.62; }
      }

      @keyframes twinkle {
        0%, 100% { transform: scale(0.85); opacity: 0.35; }
        50% { transform: scale(1.2); opacity: 1; }
      }

      @keyframes haloPulse {
        0%, 100% { opacity: 0.22; transform: scale(0.98); }
        50% { opacity: 0.46; transform: scale(1.03); }
      }

      @keyframes badgeFloat {
        0%, 100% { transform: translateY(0px); }
        50% { transform: translateY(-4px); }
      }
    </style>
  </defs>

  <g opacity="0.9">
    <circle class="sparkle" cx="140" cy="44" r="5" fill="#FFD93D"/>
    <circle class="sparkle" cx="766" cy="40" r="4" fill="#FF6B6B" style="animation-delay: -0.8s;"/>
    <circle class="sparkle" cx="206" cy="190" r="4" fill="#5A7FFF" style="animation-delay: -1.3s;"/>
    <circle class="sparkle" cx="700" cy="190" r="5" fill="#21C7A8" style="animation-delay: -1.7s;"/>
    <circle class="sparkle" cx="96" cy="120" r="3" fill="#D26BFF" style="animation-delay: -0.4s;"/>
    <circle class="sparkle" cx="810" cy="126" r="3" fill="#FFD93D" style="animation-delay: -1.1s;"/>
  </g>

  <g class="piece-fast" style="animation-delay: -0.2s;">
    <rect class="confetti-a" x="124" y="80" width="14" height="8" rx="2" transform="rotate(-20 124 80)"/>
    <rect class="confetti-b" x="178" y="54" width="18" height="8" rx="2" transform="rotate(28 178 54)"/>
    <rect class="confetti-c" x="218" y="104" width="12" height="8" rx="2" transform="rotate(-40 218 104)"/>
    <rect class="confetti-d" x="144" y="168" width="18" height="8" rx="2" transform="rotate(22 144 168)"/>
    <rect class="confetti-e" x="212" y="158" width="12" height="8" rx="2" transform="rotate(-18 212 158)"/>
  </g>

  <g class="piece-slow" style="animation-delay: -1.4s;">
    <rect class="confetti-f" x="708" y="84" width="16" height="8" rx="2" transform="rotate(18 708 84)"/>
    <rect class="confetti-c" x="750" y="60" width="12" height="8" rx="2" transform="rotate(-30 750 60)"/>
    <rect class="confetti-e" x="792" y="104" width="16" height="8" rx="2" transform="rotate(36 792 104)"/>
    <rect class="confetti-b" x="728" y="170" width="16" height="8" rx="2" transform="rotate(-16 728 170)"/>
    <rect class="confetti-d" x="784" y="154" width="14" height="8" rx="2" transform="rotate(24 784 154)"/>
  </g>

  <g class="piece-slow" style="animation-delay: -2.2s;">
    <path class="confetti-a" d="M276 48C286 42 290 52 282 58C272 64 266 54 276 48Z"/>
    <path class="confetti-f" d="M622 56C632 50 636 60 628 66C618 72 612 62 622 56Z"/>
    <path class="confetti-d" d="M270 188C280 182 284 192 276 198C266 204 260 194 270 188Z"/>
    <path class="confetti-c" d="M630 184C640 178 644 188 636 194C626 200 620 190 630 184Z"/>
  </g>

  <g opacity="0.7">
    <path d="M230 70C264 54 308 44 346 42" stroke="#FFD93D" stroke-width="3" stroke-linecap="round" stroke-dasharray="1 14"/>
    <path d="M670 70C636 54 592 44 554 42" stroke="#21C7A8" stroke-width="3" stroke-linecap="round" stroke-dasharray="1 14"/>
    <path d="M246 174C286 190 320 198 352 198" stroke="#FF6B6B" stroke-width="3" stroke-linecap="round" stroke-dasharray="1 14"/>
    <path d="M654 174C614 190 580 198 548 198" stroke="#5A7FFF" stroke-width="3" stroke-linecap="round" stroke-dasharray="1 14"/>
  </g>

  <g class="halo">
    <ellipse cx="450" cy="120" rx="248" ry="84" fill="#73E596" fill-opacity="0.16"/>
    <ellipse cx="450" cy="120" rx="278" ry="102" fill="#F7FF8A" fill-opacity="0.08"/>
  </g>

</svg>
